<svg xmlns="http://www.w3.org/2000/svg" viewBox="0 0 512 512" role="img" aria-label="Shieldora logo"><defs><linearGradient id="tg" x1="0.281" y1="-0.103" x2="0.719" y2="1.103">
    <stop offset="0" stop-color="#4aa863"/><stop offset="1" stop-color="#256437"/>
  </linearGradient>
  <linearGradient id="sg" x1="0" y1="0" x2="0" y2="1">
    <stop offset="0" stop-color="#2a7346"/><stop offset="1" stop-color="#17502c"/>
  </linearGradient></defs><rect width="512" height="512" rx="144.7" fill="url(#tg)"/>
  <g transform="translate(111.30 111.30) scale(12.0580)"><path d="M12 2.2 3.8 5.4v6c0 4.6 3.2 7.9 8.2 9.4 5-1.5 8.2-4.8 8.2-9.4v-6L12 2.2Z" fill="url(#sg)"/></g>
  <g transform="translate(111.30 111.30) scale(12.0580)" fill="none">
    <path d="M12 2.2 3.8 5.4v6c0 4.6 3.2 7.9 8.2 9.4 5-1.5 8.2-4.8 8.2-9.4v-6L12 2.2Z" stroke="#dcb978" stroke-opacity="0.95" stroke-width="1.3"/>
    <path d="M8.2 12.1 10.8 14.7 15.8 9.5" stroke="#ffffff" stroke-width="2.1" fill="none" stroke-linecap="round" stroke-linejoin="round"/>
  </g></svg>
